<svg width="319" height="23" viewBox="0 0 319 23" fill="none" xmlns="http://www.w3.org/2000/svg">
<path d="M55.9082 14.3281C55.9082 15.4219 55.4362 16.3626 54.4922 17.1504C53.5482 17.9382 52.3079 18.332 50.7715 18.332C49.3327 18.332 48.1803 17.9707 47.3145 17.248C46.4486 16.5254 46.0156 15.5944 46.0156 14.4551C46.0156 13.6152 46.2695 12.9154 46.7773 12.3555C47.2917 11.7891 48.0501 11.3105 49.0527 10.9199C48.2259 10.4577 47.6074 9.94987 47.1973 9.39648C46.7871 8.8431 46.582 8.2181 46.582 7.52148C46.582 6.46029 47.0312 5.57161 47.9297 4.85547C48.8346 4.13932 49.9154 3.78125 51.1719 3.78125C52.4284 3.78125 53.444 4.11979 54.2188 4.79688C55 5.47396 55.3906 6.32357 55.3906 7.3457C55.3906 8.00326 55.1758 8.62826 54.7461 9.2207C54.3164 9.80664 53.6849 10.2884 52.8516 10.666C53.9323 11.1283 54.7103 11.6393 55.1855 12.1992C55.6673 12.7591 55.9082 13.4688 55.9082 14.3281ZM53.5449 7.23828C53.5449 6.44401 53.3073 5.79948 52.832 5.30469C52.3633 4.80339 51.7611 4.55273 51.0254 4.55273C50.2897 4.55273 49.6875 4.79362 49.2188 5.27539C48.75 5.75065 48.5156 6.3431 48.5156 7.05273C48.5156 7.73633 48.7826 8.31576 49.3164 8.79102C49.8503 9.26628 50.8008 9.77409 52.168 10.3145C52.6562 10.002 53.0078 9.58854 53.2227 9.07422C53.4375 8.5599 53.5449 7.94792 53.5449 7.23828ZM53.9551 14.7871C53.9551 14.377 53.8672 14.0189 53.6914 13.7129C53.5156 13.4004 53.2617 13.1172 52.9297 12.8633C52.6107 12.6159 52.1647 12.3587 51.5918 12.0918C51.0254 11.8184 50.4102 11.5417 49.7461 11.2617C49.1211 11.6003 48.6621 12.0332 48.3691 12.5605C48.0762 13.0814 47.9297 13.6771 47.9297 14.3477C47.9297 15.3047 48.2096 16.0794 48.7695 16.6719C49.3359 17.2578 50.0879 17.5508 51.0254 17.5508C51.9238 17.5508 52.6367 17.2904 53.1641 16.7695C53.6914 16.2487 53.9551 15.5879 53.9551 14.7871ZM62.8895 21.5645C62.2775 21.5645 61.7176 21.4863 61.2098 21.3301C60.702 21.1803 60.2658 20.9753 59.9012 20.7148C59.5366 20.4544 59.2534 20.1549 59.0516 19.8164C58.8562 19.4779 58.7586 19.1296 58.7586 18.7715C58.7586 18.4525 58.8367 18.166 58.993 17.9121C59.1492 17.6517 59.3999 17.5215 59.7449 17.5215C60.1355 17.5215 60.4318 17.6191 60.6336 17.8145C60.8419 18.0033 60.9461 18.2214 60.9461 18.4688C60.9461 18.6771 60.9103 18.9408 60.8387 19.2598C60.7736 19.5788 60.7215 19.8066 60.6824 19.9434C60.728 20.002 60.8094 20.0801 60.9266 20.1777C61.0503 20.2754 61.2 20.3633 61.3758 20.4414C61.5841 20.5391 61.8022 20.6172 62.0301 20.6758C62.2579 20.7344 62.5802 20.7637 62.9969 20.7637C63.3875 20.7637 63.7618 20.6986 64.1199 20.5684C64.4845 20.4382 64.8035 20.2298 65.077 19.9434C65.3634 19.6439 65.5848 19.2923 65.741 18.8887C65.9038 18.4915 65.9852 17.9674 65.9852 17.3164C65.9852 16.9648 65.9461 16.6165 65.868 16.2715C65.7964 15.9264 65.6596 15.627 65.4578 15.373C65.256 15.1191 64.9793 14.9238 64.6277 14.7871C64.2827 14.6439 63.8432 14.5723 63.3094 14.5723H62.0301V13.4492H62.8797C63.7781 13.4492 64.4259 13.2018 64.823 12.707C65.2202 12.2122 65.4187 11.4668 65.4187 10.4707C65.4187 9.6569 65.2267 9.04492 64.8426 8.63477C64.4585 8.2181 63.9148 8.00977 63.2117 8.00977C62.8732 8.00977 62.5932 8.05208 62.3719 8.13672C62.157 8.21484 61.9812 8.29297 61.8445 8.37109C61.6818 8.46224 61.5483 8.56315 61.4441 8.67383C61.34 8.78451 61.2618 8.86589 61.2098 8.91797C61.2553 9.1263 61.3107 9.38346 61.3758 9.68945C61.4409 9.98893 61.4734 10.2754 61.4734 10.5488C61.4734 10.7897 61.3693 11.0078 61.1609 11.2031C60.9591 11.3919 60.6596 11.4863 60.2625 11.4863C59.9174 11.4863 59.6635 11.3626 59.5008 11.1152C59.3445 10.8678 59.2664 10.5814 59.2664 10.2559C59.2664 9.91732 59.3608 9.57227 59.5496 9.2207C59.7384 8.86914 60.0184 8.54036 60.3895 8.23438C60.7605 7.92839 61.213 7.68099 61.7469 7.49219C62.2807 7.30339 62.896 7.20898 63.5926 7.20898C64.3934 7.20898 65.0542 7.32943 65.575 7.57031C66.1023 7.80469 66.5158 8.09115 66.8152 8.42969C67.1082 8.76172 67.31 9.11003 67.4207 9.47461C67.5314 9.83919 67.5867 10.1517 67.5867 10.4121C67.5867 10.7376 67.5411 11.0664 67.45 11.3984C67.3589 11.724 67.2091 12.0267 67.0008 12.3066C66.7729 12.6126 66.4702 12.8926 66.0926 13.1465C65.7215 13.3939 65.2527 13.5957 64.6863 13.752V13.9082C65.0509 13.9408 65.4383 14.0221 65.8484 14.1523C66.2651 14.2826 66.6395 14.4746 66.9715 14.7285C67.3165 14.9954 67.5997 15.3405 67.8211 15.7637C68.0424 16.1803 68.1531 16.7109 68.1531 17.3555C68.1531 18.6055 67.6518 19.6178 66.6492 20.3926C65.6466 21.1738 64.3934 21.5645 62.8895 21.5645ZM81.277 14.3281C81.277 15.4219 80.8049 16.3626 79.8609 17.1504C78.9169 17.9382 77.6767 18.332 76.1402 18.332C74.7014 18.332 73.5491 17.9707 72.6832 17.248C71.8173 16.5254 71.3844 15.5944 71.3844 14.4551C71.3844 13.6152 71.6383 12.9154 72.1461 12.3555C72.6604 11.7891 73.4189 11.3105 74.4215 10.9199C73.5947 10.4577 72.9762 9.94987 72.566 9.39648C72.1559 8.8431 71.9508 8.2181 71.9508 7.52148C71.9508 6.46029 72.4 5.57161 73.2984 4.85547C74.2034 4.13932 75.2841 3.78125 76.5406 3.78125C77.7971 3.78125 78.8128 4.11979 79.5875 4.79688C80.3687 5.47396 80.7594 6.32357 80.7594 7.3457C80.7594 8.00326 80.5445 8.62826 80.1148 9.2207C79.6852 9.80664 79.0536 10.2884 78.2203 10.666C79.301 11.1283 80.079 11.6393 80.5543 12.1992C81.0361 12.7591 81.277 13.4688 81.277 14.3281ZM78.9137 7.23828C78.9137 6.44401 78.676 5.79948 78.2008 5.30469C77.732 4.80339 77.1298 4.55273 76.3941 4.55273C75.6585 4.55273 75.0562 4.79362 74.5875 5.27539C74.1187 5.75065 73.8844 6.3431 73.8844 7.05273C73.8844 7.73633 74.1513 8.31576 74.6852 8.79102C75.219 9.26628 76.1695 9.77409 77.5367 10.3145C78.025 10.002 78.3766 9.58854 78.5914 9.07422C78.8062 8.5599 78.9137 7.94792 78.9137 7.23828ZM79.3238 14.7871C79.3238 14.377 79.2359 14.0189 79.0602 13.7129C78.8844 13.4004 78.6305 13.1172 78.2984 12.8633C77.9794 12.6159 77.5335 12.3587 76.9605 12.0918C76.3941 11.8184 75.7789 11.5417 75.1148 11.2617C74.4898 11.6003 74.0309 12.0332 73.7379 12.5605C73.4449 13.0814 73.2984 13.6771 73.2984 14.3477C73.2984 15.3047 73.5784 16.0794 74.1383 16.6719C74.7047 17.2578 75.4566 17.5508 76.3941 17.5508C77.2926 17.5508 78.0055 17.2904 78.5328 16.7695C79.0602 16.2487 79.3238 15.5879 79.3238 14.7871ZM93.5316 8.87891C93.9483 9.38021 94.2576 9.9694 94.4594 10.6465C94.6677 11.3171 94.7719 12.0202 94.7719 12.7559C94.7719 13.6413 94.6449 14.4355 94.391 15.1387C94.1371 15.8353 93.7888 16.4147 93.3461 16.877C92.8904 17.3522 92.35 17.7103 91.725 17.9512C91.1 18.1921 90.4034 18.3125 89.6352 18.3125C88.7953 18.3125 88.0466 18.1725 87.3891 17.8926C86.7315 17.6126 86.1977 17.2285 85.7875 16.7402C85.3578 16.2324 85.0355 15.64 84.8207 14.9629C84.6124 14.2793 84.5082 13.5436 84.5082 12.7559C84.5082 11.9811 84.6091 11.2682 84.8109 10.6172C85.0193 9.96615 85.3415 9.37695 85.7777 8.84961C86.1944 8.3418 86.7315 7.94141 87.3891 7.64844C88.0466 7.35547 88.7986 7.20898 89.6449 7.20898C90.5368 7.20898 91.3018 7.35872 91.9398 7.6582C92.5779 7.95768 93.1085 8.36458 93.5316 8.87891ZM92.6137 12.7559C92.6137 11.2064 92.3467 10.0052 91.8129 9.15234C91.2855 8.29948 90.5661 7.87305 89.6547 7.87305C88.7302 7.87305 88.001 8.29948 87.4672 9.15234C86.9333 10.0052 86.6664 11.2064 86.6664 12.7559C86.6664 14.2272 86.9203 15.4121 87.4281 16.3105C87.9424 17.2025 88.6781 17.6484 89.6352 17.6484C90.5922 17.6484 91.3279 17.2025 91.8422 16.3105C92.3565 15.4121 92.6137 14.2272 92.6137 12.7559ZM113.236 18H104.086V16.6719C104.262 16.4701 104.506 16.2454 104.818 15.998C105.131 15.7441 105.502 15.4707 105.932 15.1777C106.192 15.002 106.505 14.8099 106.869 14.6016C107.234 14.3932 107.647 14.1654 108.109 13.918C108.624 13.6445 109.018 13.4036 109.291 13.1953C109.571 12.987 109.825 12.7298 110.053 12.4238C110.202 12.222 110.323 11.9714 110.414 11.6719C110.505 11.3659 110.551 10.9329 110.551 10.373C110.551 9.55924 110.333 8.96354 109.896 8.58594C109.46 8.20182 108.9 8.00977 108.217 8.00977C107.794 8.00977 107.393 8.0944 107.016 8.26367C106.638 8.42643 106.355 8.6543 106.166 8.94727C106.212 9.1556 106.267 9.40299 106.332 9.68945C106.404 9.97591 106.439 10.2559 106.439 10.5293C106.439 10.7767 106.335 10.998 106.127 11.1934C105.925 11.3822 105.622 11.4766 105.219 11.4766C104.893 11.4766 104.643 11.3659 104.467 11.1445C104.291 10.9167 104.203 10.6139 104.203 10.2363C104.203 9.88477 104.301 9.5332 104.496 9.18164C104.691 8.82357 104.971 8.49479 105.336 8.19531C105.694 7.90234 106.137 7.66471 106.664 7.48242C107.191 7.30013 107.761 7.20898 108.373 7.20898C109.708 7.20898 110.766 7.50846 111.547 8.10742C112.335 8.69987 112.729 9.49414 112.729 10.4902C112.729 10.9655 112.657 11.3984 112.514 11.7891C112.377 12.1797 112.152 12.5247 111.84 12.8242C111.495 13.1562 111.091 13.4427 110.629 13.6836C110.167 13.918 109.46 14.2467 108.51 14.6699C107.943 14.9238 107.416 15.1908 106.928 15.4707C106.439 15.7441 106.039 16.0111 105.727 16.2715H113.236V18ZM126.292 14.3281C126.292 15.4219 125.82 16.3626 124.876 17.1504C123.932 17.9382 122.692 18.332 121.155 18.332C119.716 18.332 118.564 17.9707 117.698 17.248C116.832 16.5254 116.399 15.5944 116.399 14.4551C116.399 13.6152 116.653 12.9154 117.161 12.3555C117.675 11.7891 118.434 11.3105 119.436 10.9199C118.61 10.4577 117.991 9.94987 117.581 9.39648C117.171 8.8431 116.966 8.2181 116.966 7.52148C116.966 6.46029 117.415 5.57161 118.313 4.85547C119.218 4.13932 120.299 3.78125 121.555 3.78125C122.812 3.78125 123.828 4.11979 124.602 4.79688C125.384 5.47396 125.774 6.32357 125.774 7.3457C125.774 8.00326 125.559 8.62826 125.13 9.2207C124.7 9.80664 124.068 10.2884 123.235 10.666C124.316 11.1283 125.094 11.6393 125.569 12.1992C126.051 12.7591 126.292 13.4688 126.292 14.3281ZM123.929 7.23828C123.929 6.44401 123.691 5.79948 123.216 5.30469C122.747 4.80339 122.145 4.55273 121.409 4.55273C120.673 4.55273 120.071 4.79362 119.602 5.27539C119.134 5.75065 118.899 6.3431 118.899 7.05273C118.899 7.73633 119.166 8.31576 119.7 8.79102C120.234 9.26628 121.184 9.77409 122.552 10.3145C123.04 10.002 123.391 9.58854 123.606 9.07422C123.821 8.5599 123.929 7.94792 123.929 7.23828ZM124.339 14.7871C124.339 14.377 124.251 14.0189 124.075 13.7129C123.899 13.4004 123.645 13.1172 123.313 12.8633C122.994 12.6159 122.548 12.3587 121.975 12.0918C121.409 11.8184 120.794 11.5417 120.13 11.2617C119.505 11.6003 119.046 12.0332 118.753 12.5605C118.46 13.0814 118.313 13.6771 118.313 14.3477C118.313 15.3047 118.593 16.0794 119.153 16.6719C119.72 17.2578 120.471 17.5508 121.409 17.5508C122.307 17.5508 123.02 17.2904 123.548 16.7695C124.075 16.2487 124.339 15.5879 124.339 14.7871ZM139.425 14.3281C139.425 15.4219 138.953 16.3626 138.009 17.1504C137.065 17.9382 135.825 18.332 134.289 18.332C132.85 18.332 131.698 17.9707 130.832 17.248C129.966 16.5254 129.533 15.5944 129.533 14.4551C129.533 13.6152 129.787 12.9154 130.295 12.3555C130.809 11.7891 131.567 11.3105 132.57 10.9199C131.743 10.4577 131.125 9.94987 130.714 9.39648C130.304 8.8431 130.099 8.2181 130.099 7.52148C130.099 6.46029 130.548 5.57161 131.447 4.85547C132.352 4.13932 133.433 3.78125 134.689 3.78125C135.946 3.78125 136.961 4.11979 137.736 4.79688C138.517 5.47396 138.908 6.32357 138.908 7.3457C138.908 8.00326 138.693 8.62826 138.263 9.2207C137.834 9.80664 137.202 10.2884 136.369 10.666C137.449 11.1283 138.227 11.6393 138.703 12.1992C139.185 12.7591 139.425 13.4688 139.425 14.3281ZM137.062 7.23828C137.062 6.44401 136.824 5.79948 136.349 5.30469C135.88 4.80339 135.278 4.55273 134.543 4.55273C133.807 4.55273 133.205 4.79362 132.736 5.27539C132.267 5.75065 132.033 6.3431 132.033 7.05273C132.033 7.73633 132.3 8.31576 132.834 8.79102C133.367 9.26628 134.318 9.77409 135.685 10.3145C136.173 10.002 136.525 9.58854 136.74 9.07422C136.955 8.5599 137.062 7.94792 137.062 7.23828ZM137.472 14.7871C137.472 14.377 137.384 14.0189 137.209 13.7129C137.033 13.4004 136.779 13.1172 136.447 12.8633C136.128 12.6159 135.682 12.3587 135.109 12.0918C134.543 11.8184 133.927 11.5417 133.263 11.2617C132.638 11.6003 132.179 12.0332 131.886 12.5605C131.593 13.0814 131.447 13.6771 131.447 14.3477C131.447 15.3047 131.727 16.0794 132.287 16.6719C132.853 17.2578 133.605 17.5508 134.543 17.5508C135.441 17.5508 136.154 17.2904 136.681 16.7695C137.209 16.2487 137.472 15.5879 137.472 14.7871ZM151.68 8.87891C152.097 9.38021 152.406 9.9694 152.608 10.6465C152.816 11.3171 152.92 12.0202 152.92 12.7559C152.92 13.6413 152.793 14.4355 152.539 15.1387C152.286 15.8353 151.937 16.4147 151.495 16.877C151.039 17.3522 150.498 17.7103 149.873 17.9512C149.248 18.1921 148.552 18.3125 147.784 18.3125C146.944 18.3125 146.195 18.1725 145.537 17.8926C144.88 17.6126 144.346 17.2285 143.936 16.7402C143.506 16.2324 143.184 15.64 142.969 14.9629C142.761 14.2793 142.657 13.5436 142.657 12.7559C142.657 11.9811 142.758 11.2682 142.959 10.6172C143.168 9.96615 143.49 9.37695 143.926 8.84961C144.343 8.3418 144.88 7.94141 145.537 7.64844C146.195 7.35547 146.947 7.20898 147.793 7.20898C148.685 7.20898 149.45 7.35872 150.088 7.6582C150.726 7.95768 151.257 8.36458 151.68 8.87891ZM150.762 12.7559C150.762 11.2064 150.495 10.0052 149.961 9.15234C149.434 8.29948 148.715 7.87305 147.803 7.87305C146.879 7.87305 146.149 8.29948 145.616 9.15234C145.082 10.0052 144.815 11.2064 144.815 12.7559C144.815 14.2272 145.069 15.4121 145.577 16.3105C146.091 17.2025 146.827 17.6484 147.784 17.6484C148.741 17.6484 149.476 17.2025 149.991 16.3105C150.505 15.4121 150.762 14.2272 150.762 12.7559ZM172.068 14.3281C172.068 15.4219 171.596 16.3626 170.652 17.1504C169.708 17.9382 168.468 18.332 166.932 18.332C165.493 18.332 164.34 17.9707 163.475 17.248C162.609 16.5254 162.176 15.5944 162.176 14.4551C162.176 13.6152 162.43 12.9154 162.938 12.3555C163.452 11.7891 164.21 11.3105 165.213 10.9199C164.386 10.4577 163.768 9.94987 163.357 9.39648C162.947 8.8431 162.742 8.2181 162.742 7.52148C162.742 6.46029 163.191 5.57161 164.09 4.85547C164.995 4.13932 166.076 3.78125 167.332 3.78125C168.589 3.78125 169.604 4.11979 170.379 4.79688C171.16 5.47396 171.551 6.32357 171.551 7.3457C171.551 8.00326 171.336 8.62826 170.906 9.2207C170.477 9.80664 169.845 10.2884 169.012 10.666C170.092 11.1283 170.87 11.6393 171.346 12.1992C171.827 12.7591 172.068 13.4688 172.068 14.3281ZM169.705 7.23828C169.705 6.44401 169.467 5.79948 168.992 5.30469C168.523 4.80339 167.921 4.55273 167.186 4.55273C166.45 4.55273 165.848 4.79362 165.379 5.27539C164.91 5.75065 164.676 6.3431 164.676 7.05273C164.676 7.73633 164.943 8.31576 165.477 8.79102C166.01 9.26628 166.961 9.77409 168.328 10.3145C168.816 10.002 169.168 9.58854 169.383 9.07422C169.598 8.5599 169.705 7.94792 169.705 7.23828ZM170.115 14.7871C170.115 14.377 170.027 14.0189 169.852 13.7129C169.676 13.4004 169.422 13.1172 169.09 12.8633C168.771 12.6159 168.325 12.3587 167.752 12.0918C167.186 11.8184 166.57 11.5417 165.906 11.2617C165.281 11.6003 164.822 12.0332 164.529 12.5605C164.236 13.0814 164.09 13.6771 164.09 14.3477C164.09 15.3047 164.37 16.0794 164.93 16.6719C165.496 17.2578 166.248 17.5508 167.186 17.5508C168.084 17.5508 168.797 17.2904 169.324 16.7695C169.852 16.2487 170.115 15.5879 170.115 14.7871ZM184.323 8.87891C184.74 9.38021 185.049 9.9694 185.251 10.6465C185.459 11.3171 185.563 12.0202 185.563 12.7559C185.563 13.6413 185.436 14.4355 185.182 15.1387C184.929 15.8353 184.58 16.4147 184.137 16.877C183.682 17.3522 183.141 17.7103 182.516 17.9512C181.891 18.1921 181.195 18.3125 180.427 18.3125C179.587 18.3125 178.838 18.1725 178.18 17.8926C177.523 17.6126 176.989 17.2285 176.579 16.7402C176.149 16.2324 175.827 15.64 175.612 14.9629C175.404 14.2793 175.3 13.5436 175.3 12.7559C175.3 11.9811 175.401 11.2682 175.602 10.6172C175.811 9.96615 176.133 9.37695 176.569 8.84961C176.986 8.3418 177.523 7.94141 178.18 7.64844C178.838 7.35547 179.59 7.20898 180.436 7.20898C181.328 7.20898 182.093 7.35872 182.731 7.6582C183.369 7.95768 183.9 8.36458 184.323 8.87891ZM183.405 12.7559C183.405 11.2064 183.138 10.0052 182.604 9.15234C182.077 8.29948 181.358 7.87305 180.446 7.87305C179.522 7.87305 178.792 8.29948 178.259 9.15234C177.725 10.0052 177.458 11.2064 177.458 12.7559C177.458 14.2272 177.712 15.4121 178.22 16.3105C178.734 17.2025 179.47 17.6484 180.427 17.6484C181.384 17.6484 182.119 17.2025 182.634 16.3105C183.148 15.4121 183.405 14.2272 183.405 12.7559ZM198.004 18H188.853V16.6719C189.029 16.4701 189.273 16.2454 189.586 15.998C189.898 15.7441 190.269 15.4707 190.699 15.1777C190.959 15.002 191.272 14.8099 191.636 14.6016C192.001 14.3932 192.414 14.1654 192.877 13.918C193.391 13.6445 193.785 13.4036 194.058 13.1953C194.338 12.987 194.592 12.7298 194.82 12.4238C194.97 12.222 195.09 11.9714 195.181 11.6719C195.272 11.3659 195.318 10.9329 195.318 10.373C195.318 9.55924 195.1 8.96354 194.664 8.58594C194.227 8.20182 193.668 8.00977 192.984 8.00977C192.561 8.00977 192.16 8.0944 191.783 8.26367C191.405 8.42643 191.122 8.6543 190.933 8.94727C190.979 9.1556 191.034 9.40299 191.099 9.68945C191.171 9.97591 191.207 10.2559 191.207 10.5293C191.207 10.7767 191.102 10.998 190.894 11.1934C190.692 11.3822 190.39 11.4766 189.986 11.4766C189.66 11.4766 189.41 11.3659 189.234 11.1445C189.058 10.9167 188.97 10.6139 188.97 10.2363C188.97 9.88477 189.068 9.5332 189.263 9.18164C189.459 8.82357 189.739 8.49479 190.103 8.19531C190.461 7.90234 190.904 7.66471 191.431 7.48242C191.959 7.30013 192.528 7.20898 193.14 7.20898C194.475 7.20898 195.533 7.50846 196.314 8.10742C197.102 8.69987 197.496 9.49414 197.496 10.4902C197.496 10.9655 197.424 11.3984 197.281 11.7891C197.144 12.1797 196.92 12.5247 196.607 12.8242C196.262 13.1562 195.858 13.4427 195.396 13.6836C194.934 13.918 194.227 14.2467 193.277 14.6699C192.711 14.9238 192.183 15.1908 191.695 15.4707C191.207 15.7441 190.806 16.0111 190.494 16.2715H198.004V18ZM211.059 14.3281C211.059 15.4219 210.587 16.3626 209.643 17.1504C208.699 17.9382 207.459 18.332 205.922 18.332C204.483 18.332 203.331 17.9707 202.465 17.248C201.599 16.5254 201.166 15.5944 201.166 14.4551C201.166 13.6152 201.42 12.9154 201.928 12.3555C202.442 11.7891 203.201 11.3105 204.204 10.9199C203.377 10.4577 202.758 9.94987 202.348 9.39648C201.938 8.8431 201.733 8.2181 201.733 7.52148C201.733 6.46029 202.182 5.57161 203.08 4.85547C203.985 4.13932 205.066 3.78125 206.323 3.78125C207.579 3.78125 208.595 4.11979 209.37 4.79688C210.151 5.47396 210.541 6.32357 210.541 7.3457C210.541 8.00326 210.327 8.62826 209.897 9.2207C209.467 9.80664 208.836 10.2884 208.002 10.666C209.083 11.1283 209.861 11.6393 210.336 12.1992C210.818 12.7591 211.059 13.4688 211.059 14.3281ZM208.696 7.23828C208.696 6.44401 208.458 5.79948 207.983 5.30469C207.514 4.80339 206.912 4.55273 206.176 4.55273C205.441 4.55273 204.838 4.79362 204.37 5.27539C203.901 5.75065 203.666 6.3431 203.666 7.05273C203.666 7.73633 203.933 8.31576 204.467 8.79102C205.001 9.26628 205.952 9.77409 207.319 10.3145C207.807 10.002 208.159 9.58854 208.373 9.07422C208.588 8.5599 208.696 7.94792 208.696 7.23828ZM209.106 14.7871C209.106 14.377 209.018 14.0189 208.842 13.7129C208.666 13.4004 208.413 13.1172 208.08 12.8633C207.761 12.6159 207.316 12.3587 206.743 12.0918C206.176 11.8184 205.561 11.5417 204.897 11.2617C204.272 11.6003 203.813 12.0332 203.52 12.5605C203.227 13.0814 203.08 13.6771 203.08 14.3477C203.08 15.3047 203.36 16.0794 203.92 16.6719C204.487 17.2578 205.239 17.5508 206.176 17.5508C207.075 17.5508 207.788 17.2904 208.315 16.7695C208.842 16.2487 209.106 15.5879 209.106 14.7871ZM230.217 14.3281C230.217 15.4219 229.745 16.3626 228.801 17.1504C227.857 17.9382 226.617 18.332 225.08 18.332C223.641 18.332 222.489 17.9707 221.623 17.248C220.757 16.5254 220.324 15.5944 220.324 14.4551C220.324 13.6152 220.578 12.9154 221.086 12.3555C221.6 11.7891 222.359 11.3105 223.361 10.9199C222.535 10.4577 221.916 9.94987 221.506 9.39648C221.096 8.8431 220.891 8.2181 220.891 7.52148C220.891 6.46029 221.34 5.57161 222.238 4.85547C223.143 4.13932 224.224 3.78125 225.48 3.78125C226.737 3.78125 227.753 4.11979 228.527 4.79688C229.309 5.47396 229.699 6.32357 229.699 7.3457C229.699 8.00326 229.484 8.62826 229.055 9.2207C228.625 9.80664 227.993 10.2884 227.16 10.666C228.241 11.1283 229.019 11.6393 229.494 12.1992C229.976 12.7591 230.217 13.4688 230.217 14.3281ZM227.854 7.23828C227.854 6.44401 227.616 5.79948 227.141 5.30469C226.672 4.80339 226.07 4.55273 225.334 4.55273C224.598 4.55273 223.996 4.79362 223.527 5.27539C223.059 5.75065 222.824 6.3431 222.824 7.05273C222.824 7.73633 223.091 8.31576 223.625 8.79102C224.159 9.26628 225.109 9.77409 226.477 10.3145C226.965 10.002 227.316 9.58854 227.531 9.07422C227.746 8.5599 227.854 7.94792 227.854 7.23828ZM228.264 14.7871C228.264 14.377 228.176 14.0189 228 13.7129C227.824 13.4004 227.57 13.1172 227.238 12.8633C226.919 12.6159 226.473 12.3587 225.9 12.0918C225.334 11.8184 224.719 11.5417 224.055 11.2617C223.43 11.6003 222.971 12.0332 222.678 12.5605C222.385 13.0814 222.238 13.6771 222.238 14.3477C222.238 15.3047 222.518 16.0794 223.078 16.6719C223.645 17.2578 224.396 17.5508 225.334 17.5508C226.232 17.5508 226.945 17.2904 227.473 16.7695C228 16.2487 228.264 15.5879 228.264 14.7871ZM242.491 8.15625L235.528 21.5645H234.307L240.86 9.16211H237.022C236.456 9.16211 236.013 9.16862 235.694 9.18164C235.375 9.19466 235.082 9.25651 234.815 9.36719C234.613 9.45182 234.431 9.66992 234.268 10.0215C234.112 10.3665 233.992 10.8092 233.907 11.3496H233.311V7.52148H242.491V8.15625ZM254.013 12.9609C254.013 14.0938 253.834 15.1615 253.476 16.1641C253.118 17.1602 252.604 18.0358 251.933 18.791C251.276 19.5332 250.472 20.1484 249.521 20.6367C248.577 21.1315 247.519 21.457 246.347 21.6133L246.171 20.7344L247.05 20.5781C248.45 20.1354 249.544 19.4551 250.332 18.5371C251.119 17.6191 251.627 16.4538 251.855 15.041C251.321 15.4967 250.787 15.832 250.254 16.0469C249.726 16.2552 249.13 16.3594 248.466 16.3594C247.405 16.3594 246.481 15.946 245.693 15.1191C244.912 14.2923 244.521 13.2507 244.521 11.9941C244.521 10.6465 244.974 9.51042 245.879 8.58594C246.79 7.66146 247.913 7.19922 249.248 7.19922C250.699 7.19922 251.855 7.7168 252.714 8.75195C253.58 9.78711 254.013 11.1901 254.013 12.9609ZM251.943 12.8438C251.943 11.3203 251.692 10.1289 251.191 9.26953C250.696 8.40365 250.042 7.9707 249.228 7.9707C248.453 7.9707 247.828 8.30599 247.353 8.97656C246.878 9.64062 246.64 10.5586 246.64 11.7305C246.64 12.7852 246.881 13.6315 247.363 14.2695C247.851 14.9076 248.502 15.2266 249.316 15.2266C249.824 15.2266 250.289 15.1354 250.712 14.9531C251.136 14.7643 251.53 14.4648 251.894 14.0547C251.894 14.0286 251.897 13.9766 251.904 13.8984C251.917 13.8203 251.923 13.7096 251.923 13.5664C251.923 13.4753 251.927 13.3646 251.933 13.2344C251.94 13.1042 251.943 12.974 251.943 12.8438ZM264.129 18H257.547V17.3066C257.743 17.2936 258.045 17.2676 258.455 17.2285C258.872 17.1829 259.159 17.1374 259.315 17.0918C259.517 17.0267 259.67 16.9225 259.774 16.7793C259.885 16.6296 259.94 16.4082 259.94 16.1152V9.25977H257.508V8.43945H258.045C258.748 8.43945 259.377 8.30924 259.93 8.04883C260.49 7.78841 260.89 7.50846 261.131 7.20898H261.942C261.922 7.63216 261.903 8.12695 261.883 8.69336C261.864 9.25977 261.854 9.76758 261.854 10.2168V16.0078C261.854 16.2357 261.903 16.4408 262 16.623C262.105 16.7988 262.251 16.929 262.44 17.0137C262.609 17.0853 262.886 17.1504 263.27 17.209C263.654 17.2676 263.941 17.3001 264.129 17.3066V18ZM282.096 8.15625L275.133 21.5645H273.912L280.465 9.16211H276.627C276.061 9.16211 275.618 9.16862 275.299 9.18164C274.98 9.19466 274.687 9.25651 274.42 9.36719C274.218 9.45182 274.036 9.66992 273.873 10.0215C273.717 10.3665 273.596 10.8092 273.512 11.3496H272.916V7.52148H282.096V8.15625ZM293.891 17.1211H291.909V21.5645H290.034V17.1211H283.784V15.6172L290.63 7.26758H291.909V15.8418H293.891V17.1211ZM290.034 15.8418V9.44531L284.761 15.8418H290.034ZM300.57 21.5645C299.958 21.5645 299.398 21.4863 298.89 21.3301C298.382 21.1803 297.946 20.9753 297.582 20.7148C297.217 20.4544 296.934 20.1549 296.732 19.8164C296.537 19.4779 296.439 19.1296 296.439 18.7715C296.439 18.4525 296.517 18.166 296.673 17.9121C296.83 17.6517 297.08 17.5215 297.425 17.5215C297.816 17.5215 298.112 17.6191 298.314 17.8145C298.522 18.0033 298.627 18.2214 298.627 18.4688C298.627 18.6771 298.591 18.9408 298.519 19.2598C298.454 19.5788 298.402 19.8066 298.363 19.9434C298.408 20.002 298.49 20.0801 298.607 20.1777C298.731 20.2754 298.88 20.3633 299.056 20.4414C299.265 20.5391 299.483 20.6172 299.711 20.6758C299.938 20.7344 300.261 20.7637 300.677 20.7637C301.068 20.7637 301.442 20.6986 301.8 20.5684C302.165 20.4382 302.484 20.2298 302.757 19.9434C303.044 19.6439 303.265 19.2923 303.421 18.8887C303.584 18.4915 303.666 17.9674 303.666 17.3164C303.666 16.9648 303.627 16.6165 303.548 16.2715C303.477 15.9264 303.34 15.627 303.138 15.373C302.936 15.1191 302.66 14.9238 302.308 14.7871C301.963 14.6439 301.524 14.5723 300.99 14.5723H299.711V13.4492H300.56C301.459 13.4492 302.106 13.2018 302.504 12.707C302.901 12.2122 303.099 11.4668 303.099 10.4707C303.099 9.6569 302.907 9.04492 302.523 8.63477C302.139 8.2181 301.595 8.00977 300.892 8.00977C300.554 8.00977 300.274 8.05208 300.052 8.13672C299.837 8.21484 299.662 8.29297 299.525 8.37109C299.362 8.46224 299.229 8.56315 299.125 8.67383C299.02 8.78451 298.942 8.86589 298.89 8.91797C298.936 9.1263 298.991 9.38346 299.056 9.68945C299.121 9.98893 299.154 10.2754 299.154 10.5488C299.154 10.7897 299.05 11.0078 298.841 11.2031C298.64 11.3919 298.34 11.4863 297.943 11.4863C297.598 11.4863 297.344 11.3626 297.181 11.1152C297.025 10.8678 296.947 10.5814 296.947 10.2559C296.947 9.91732 297.041 9.57227 297.23 9.2207C297.419 8.86914 297.699 8.54036 298.07 8.23438C298.441 7.92839 298.893 7.68099 299.427 7.49219C299.961 7.30339 300.576 7.20898 301.273 7.20898C302.074 7.20898 302.735 7.32943 303.255 7.57031C303.783 7.80469 304.196 8.09115 304.496 8.42969C304.789 8.76172 304.99 9.11003 305.101 9.47461C305.212 9.83919 305.267 10.1517 305.267 10.4121C305.267 10.7376 305.222 11.0664 305.13 11.3984C305.039 11.724 304.89 12.0267 304.681 12.3066C304.453 12.6126 304.151 12.8926 303.773 13.1465C303.402 13.3939 302.933 13.5957 302.367 13.752V13.9082C302.731 13.9408 303.119 14.0221 303.529 14.1523C303.946 14.2826 304.32 14.4746 304.652 14.7285C304.997 14.9954 305.28 15.3405 305.502 15.7637C305.723 16.1803 305.834 16.7109 305.834 17.3555C305.834 18.6055 305.332 19.6178 304.33 20.3926C303.327 21.1738 302.074 21.5645 300.57 21.5645ZM316.282 13.4199C316.711 13.7585 317.066 14.1947 317.346 14.7285C317.633 15.2624 317.776 15.9297 317.776 16.7305C317.776 18.1302 317.297 19.2858 316.34 20.1973C315.383 21.1087 314.169 21.5645 312.698 21.5645C311.558 21.5645 310.595 21.2943 309.807 20.7539C309.019 20.2135 308.625 19.5853 308.625 18.8691C308.625 18.5371 308.707 18.2474 308.87 18C309.032 17.7526 309.283 17.6289 309.621 17.6289C310.012 17.6289 310.308 17.7331 310.51 17.9414C310.718 18.1432 310.823 18.3646 310.823 18.6055C310.823 18.8138 310.787 19.0742 310.715 19.3867C310.644 19.6992 310.588 19.9303 310.549 20.0801C310.601 20.1257 310.686 20.1875 310.803 20.2656C310.92 20.3438 311.06 20.4186 311.223 20.4902C311.392 20.5618 311.597 20.6237 311.838 20.6758C312.086 20.7344 312.372 20.7637 312.698 20.7637C313.114 20.7637 313.508 20.679 313.879 20.5098C314.25 20.3405 314.563 20.0898 314.817 19.7578C315.097 19.3932 315.305 18.9766 315.442 18.5078C315.585 18.0456 315.657 17.4564 315.657 16.7402C315.657 15.8223 315.399 15.0638 314.885 14.4648C314.377 13.8594 313.707 13.5566 312.873 13.5566C312.353 13.5566 311.864 13.6543 311.409 13.8496C310.959 14.0449 310.556 14.3704 310.198 14.8262L309.543 14.5723L310.373 7.52148H317.366V9.25977H311.164L310.657 13.4004C310.95 13.1921 311.334 12.987 311.809 12.7852C312.291 12.5768 312.818 12.4727 313.391 12.4727C313.866 12.4727 314.358 12.5475 314.866 12.6973C315.38 12.8405 315.852 13.0814 316.282 13.4199Z" fill="#545454"/>
<path d="M25.9815 23H4.01915C1.80285 23 0 21.2046 0 19.0001V3.9999C0 1.79421 1.80285 0 4.01915 0H25.9808C28.196 0 30 1.79421 30 3.9999V19.0001C30.0006 21.2052 28.1972 23 25.9815 23ZM4.01915 1.14285C2.43563 1.14285 1.14836 2.42396 1.14836 3.9999V19.0001C1.14836 20.5755 2.43563 21.8571 4.01915 21.8571H25.9808C27.5638 21.8571 28.8516 20.5755 28.8516 19.0001V3.9999C28.8516 2.42396 27.5638 1.14285 25.9808 1.14285H4.01915ZM20.7037 3.35993C22.1363 3.35993 23.2977 4.51532 23.2977 5.94153C23.2977 7.36774 22.1368 8.52376 20.7037 8.52376C19.2706 8.52376 18.1097 7.36783 18.1097 5.94153C18.1097 4.51523 19.2712 3.35993 20.7037 3.35993ZM24.3204 3.35993C25.7529 3.35993 26.9151 4.51532 26.9151 5.94153C26.9151 7.36774 25.7536 8.52376 24.3204 8.52376C22.8873 8.52376 21.7264 7.36783 21.7264 5.94153C21.7264 4.51523 22.8879 3.35993 24.3204 3.35993ZM3.0861 16.3339H7.8683V18.0481H3.0861V16.3339ZM9.43467 16.3339H14.2175V18.0481H9.43467V16.3339ZM15.782 16.3339H20.5659V18.0481H15.782V16.3339ZM22.1305 16.3339H26.9144V18.0481H22.1305V16.3339ZM3.0861 3.36046H12.1263V5.07474H3.0861V3.36046ZM3.0861 6.76208H7.86946V8.47637H3.0861V6.76208Z" fill="#292929"/>
</svg>
